#tb 0: 2/25
0,          0,          0,        1,   608256, 0x3f2fed4c
0,          1,          1,        1,   608256, 0xc3c3d9a1
0,          2,          2,        1,   608256, 0x80f5143c
0,          3,          3,        1,   608256, 0x23004f1e
0,          4,          4,        1,   608256, 0xc596da2d
